<svg width="380" height="380" viewBox="0 0 380 380" fill="none" xmlns="http://www.w3.org/2000/svg">
<g clip-path="url(#clip0_2091_205)">
<path opacity="0.12" d="M764.061 -177.917L284.283 99.0828V156.083L159.283 228.252M-46.2166 346.897L27.5 303.914M750.061 -186L270.283 91V148L-60.2166 338.814M738.783 -197.277L259.006 79.7226V136.723L-71.4939 327.537M728.06 -208L248.283 69V126L83.0327 221.407M-82.2173 316.814L83.0327 221.407M83.0327 221.407V99.0828L-143 -31.4172M83.0327 83.0828L-143 -47.4173M83.0327 69.0828L-143 -61.4172M83.0327 54.0828L-143 -76.4173M159.283 228.252L312.678 316.814V524.583M159.283 228.252L27.5 303.914M300.955 323.583V531.351M289.696 330.083V537.851M277.783 336.961V544.729M27.5 303.914V502.5M18.5 309.533V508.119M9.5 314.729V513.315" stroke="white"/>
<path opacity="0.12" d="M676.279 458.044L196.502 181.044L196.501 35.4174L71.5005 -36.7515L-61.2827 -113.414L-133.999 -155.397M662.279 466.127L182.502 189.126L182.501 43.5003L-147.999 -147.314M651.001 477.404L171.224 200.404L171.223 54.7776L-159.277 -136.037M640.278 488.126L160.501 211.126L160.5 65.5002L-4.75 -29.9069L-170 -125.314" stroke="white"/>
<path opacity="0.12" d="M70 332.973L186 266L197.75 272.784M209.5 279.568V441.973M209.5 279.568L197.75 272.784M209.5 279.568L70 360.108M197.75 272.784L70 346.54" stroke="white"/>
</g>
<defs>
<clipPath id="clip0_2091_205">
<rect width="380" height="380" fill="white"/>
</clipPath>
</defs>
</svg>
