<svg width="289" height="68" viewBox="0 0 289 68" fill="none" xmlns="http://www.w3.org/2000/svg">
<path fill-rule="evenodd" clip-rule="evenodd" d="M57.3185 66.649H61.3083C62.2328 66.649 63.0114 65.8704 63.0601 64.9459V21.4948C63.0601 17.213 59.6053 13.7583 55.3235 13.7583H50.2145C49.29 13.7583 48.5115 12.9798 48.5115 12.0553V8.1141C48.5115 3.83224 45.0568 0.377563 40.775 0.377563H7.73653C3.45467 0.377563 0 3.83224 0 8.1141V51.7598C0 55.9929 3.45467 59.4476 7.73653 59.4963H46.0299C46.3705 59.4963 46.7111 59.5937 47.0031 59.7882L56.3453 66.3571C56.6373 66.5516 56.9779 66.649 57.3185 66.649ZM48.0249 53.3168H7.83384C6.8607 53.3168 6.13083 52.587 6.13083 51.6138V8.21141C6.13083 7.28692 6.90935 6.5084 7.83384 6.5084H40.6776C41.6021 6.5084 42.3807 7.28692 42.3807 8.21141V12.0553C42.3807 12.9798 41.6021 13.7583 40.6776 13.7583H16.2029C15.2784 13.7583 14.4999 14.5369 14.4999 15.4614V44.4125C14.4999 45.337 15.2784 46.1156 16.2029 46.1156H46.7598C47.6843 46.1156 48.4628 45.337 48.4628 44.4125V21.5922C48.4628 20.6677 49.2413 19.8891 50.1658 19.8891H55.1775C56.102 19.8891 56.8806 20.6677 56.8806 21.5922V57.1121C56.8806 57.988 55.9074 58.4745 55.2261 57.988L48.998 53.6088C48.7061 53.4141 48.3655 53.3168 48.0249 53.3168ZM41.5048 39.9361H21.458C21.02 39.9361 20.6307 39.5955 20.6307 39.1089V20.7164C20.6307 20.2785 20.9713 19.8891 21.458 19.8891H41.5048C41.9427 19.8891 42.3319 20.2297 42.3319 20.7164V39.1089C42.3319 39.5467 41.9913 39.9361 41.5048 39.9361ZM218.045 9.62949C220.601 9.62949 222.672 7.55841 222.672 5.00355C222.672 2.44869 220.601 0.377563 218.045 0.377563C215.491 0.377563 213.42 2.44869 213.42 5.00355C213.42 7.55841 215.491 9.62949 218.045 9.62949ZM165.273 16.3925V13.8226H157.82V45.8617H165.273V23.974L173.969 20.3761V12.8802H173.883L165.273 16.3925ZM136.397 13.7937C131.557 13.7937 127.616 15.3786 124.618 18.591C123.248 20.0902 122.177 21.8035 121.406 23.8167C120.678 25.787 120.292 27.8858 120.292 30.0703C120.292 34.5678 121.577 38.2943 124.19 41.1641C127.06 44.3337 131 45.8757 136.012 45.8757C140.895 45.8757 144.792 44.291 147.748 41.0784C150.532 38.0373 151.946 34.2251 151.946 29.5991C151.946 24.9731 150.575 21.2467 147.876 18.334C145.006 15.2929 141.194 13.7937 136.397 13.7937ZM142.223 36.581C140.809 38.3371 138.839 39.2366 136.354 39.2366C133.698 39.2366 131.515 38.3371 129.886 36.5381C129.115 35.7243 128.516 34.6963 128.088 33.5398C127.659 32.3833 127.445 31.184 127.445 29.8989C127.445 27.329 128.13 25.1873 129.544 23.3883C131.086 21.4608 133.184 20.4756 135.883 20.4756C138.539 20.4756 140.638 21.3751 142.137 23.217C143.55 24.9303 144.278 27.1577 144.278 29.9418C144.322 32.6403 143.636 34.8677 142.223 36.581ZM214.27 13.8278H221.68V45.9099H214.27V13.8278ZM101.194 13.7937C96.9535 13.7937 93.4843 15.0359 90.7854 17.5202C88.2583 19.876 86.9733 22.8315 86.9733 26.3866C86.9733 29.5563 88.0869 32.1692 90.3145 34.2679C88.3867 35.8099 87.4445 37.6518 87.4445 39.8363C87.4445 41.1641 87.6158 42.3206 87.9156 43.3058C88.2154 44.3337 88.8151 45.1904 89.7574 45.9614C86.4164 47.8032 84.7888 50.8015 84.9173 54.9135C85.003 58.4687 86.545 61.2957 89.5433 63.4373C92.5416 65.579 96.525 66.6499 101.408 66.6499C106.291 66.6499 109.932 65.7075 112.416 63.8228C114.9 61.9382 116.142 59.2397 116.142 55.6845C116.142 52.1722 115.157 49.4309 113.187 47.5034C112.117 46.4754 110.745 45.6616 109.075 44.9334C107.362 44.2481 105.049 43.6484 102.051 43.1772C99.0525 42.7061 96.9102 42.1921 95.6257 41.5496C95.0258 41.2926 94.6407 40.9928 94.4693 40.693C94.2979 40.3931 94.2122 39.9647 94.2122 39.4079C94.2122 38.8511 94.5974 38.08 95.3253 37.0949C96.9959 37.6518 98.8378 37.9516 100.809 37.9516C104.834 37.9516 108.133 36.7523 110.745 34.3107C111.902 33.1971 112.802 31.8693 113.444 30.3702C114.087 28.871 114.387 27.2004 114.387 25.3587C114.387 23.5168 113.958 21.7607 113.102 20.133C113.102 20.133 113.102 20.0902 113.058 20.0902H116.186V13.7937H101.194ZM96.0108 48.4457L97.5533 48.7027C101.879 49.3452 104.963 50.2018 106.72 51.3583C108.305 52.3435 109.075 53.6714 109.075 55.299C109.075 58.7256 106.634 60.3962 101.75 60.3962C98.8811 60.3962 96.5683 59.7965 94.7687 58.64C93.9551 58.126 93.3129 57.4835 92.8844 56.7553C92.4127 56.0272 92.1989 55.2133 92.1989 54.2282C92.1989 53.243 92.4983 52.2151 93.0982 51.1442C93.7413 50.0306 94.7264 49.1739 96.0108 48.4457ZM105.349 30.0703C104.149 31.1411 102.735 31.6979 101.151 31.6979C99.0092 31.6979 97.2962 31.0983 95.9684 29.8989C95.3686 29.385 94.9401 28.7424 94.5974 28.0999C94.2979 27.4147 94.1265 26.7293 94.1265 26.0011C94.1265 25.273 94.2546 24.5448 94.555 23.8167C95.4967 21.3751 97.5957 20.1758 100.894 20.1758C102.864 20.1758 104.449 20.6898 105.563 21.7178C106.676 22.7459 107.276 24.1165 107.276 25.787C107.233 27.4147 106.591 28.871 105.349 30.0703ZM254.403 20.7755C254.961 22.2318 255.26 23.9451 255.26 25.787V45.79H247.979V44.2909C245.794 45.2761 243.781 45.79 241.939 45.79C239.626 45.79 237.699 45.5759 236.071 45.1476C234.443 44.7192 233.073 44.0767 231.959 43.2629C229.689 41.5496 228.532 39.1081 228.532 35.9385C228.532 33.1114 229.903 30.7128 232.73 28.8281C235.771 26.7721 239.926 25.7441 245.152 25.7441L246.351 25.787C246.474 25.787 246.598 25.7969 246.726 25.8072C246.865 25.8183 247.009 25.8298 247.164 25.8298C247.309 25.8504 247.442 25.861 247.571 25.8713C247.711 25.8825 247.845 25.8931 247.979 25.9155C247.808 22.7459 246.436 20.8612 243.867 20.3472C243.053 20.1758 242.11 20.0902 241.168 20.0902C240.183 20.0902 239.241 20.1758 238.341 20.3472C237.399 20.5185 236.499 20.7755 235.643 21.0325C233.758 21.6321 232.344 22.3603 231.53 23.1313L231.445 23.0885L230.545 16.535C234.015 14.6932 237.87 13.7937 242.025 13.7937C248.492 13.7937 252.605 16.1067 254.403 20.7755ZM247.979 38.2086V34.0966V31.3124C247.421 31.2268 246.865 31.184 246.308 31.184H245.109C240.74 31.184 237.956 32.1692 236.756 34.0966C236.414 34.6534 236.243 35.2531 236.243 35.8956C236.243 36.5381 236.371 37.0949 236.585 37.5661C236.842 38.0373 237.228 38.4656 237.742 38.7654C238.769 39.3651 240.312 39.6649 242.325 39.6649C244.337 39.6649 246.223 39.1509 247.979 38.2086ZM282.636 27.9715C283.878 28.5712 284.906 29.2993 285.677 30.1559C287.091 31.6979 287.819 33.7539 287.819 36.4096C287.819 39.1938 286.705 41.4639 284.478 43.2201C282.165 45.0619 278.909 45.9614 274.712 45.9614C269.657 45.9614 265.717 45.1048 262.933 43.4342V35.5529C262.933 35.5101 263.104 35.6815 263.404 36.0241C263.704 36.3667 264.304 36.7523 265.117 37.2662C265.931 37.7802 266.916 38.2086 267.987 38.5941C270.343 39.4079 272.785 39.7934 275.355 39.7934C278.781 39.7934 280.494 38.637 280.494 36.3667C280.494 35.6386 280.152 35.0818 279.509 34.7391C278.353 34.1395 276.639 33.6682 274.37 33.3684C272.099 33.0258 270.257 32.5974 268.801 31.9978C267.345 31.3981 266.145 30.67 265.246 29.8561C263.575 28.2713 262.719 26.2153 262.719 23.6881C262.719 20.6042 263.918 18.1627 266.274 16.4065C268.63 14.6504 271.884 13.7937 276.04 13.7937C280.152 13.7937 283.664 14.9502 286.577 17.306C286.449 17.82 286.32 18.334 286.148 18.8052C285.677 20.133 285.335 21.0753 285.121 21.6321L284.435 23.3883C284.392 23.5597 284.35 23.6453 284.35 23.6453C284.306 23.6453 284.135 23.4311 283.878 23.0029C282.636 21.5465 280.666 20.6042 278.052 20.133C277.239 19.9617 276.425 19.876 275.568 19.876C271.97 19.876 270.171 20.9469 270.171 23.1313C270.171 23.8595 270.514 24.4592 271.285 24.8446C272.699 25.6157 274.627 26.1725 277.067 26.5152C279.509 26.9006 281.351 27.3718 282.636 27.9715ZM192.467 13.7937C188.227 13.7937 184.757 15.0359 182.059 17.5202C179.531 19.876 178.247 22.8315 178.247 26.3866C178.247 29.5563 179.36 32.1692 181.588 34.2679C179.66 35.8099 178.718 37.6518 178.718 39.8363C178.718 41.1641 178.889 42.3206 179.189 43.3058C179.489 44.3337 180.089 45.1904 181.03 45.9614C177.689 47.8032 176.062 50.8015 176.19 54.9135C176.276 58.4687 177.818 61.2957 180.817 63.4373C183.815 65.579 187.798 66.6499 192.681 66.6499C197.565 66.6499 201.205 65.7075 203.689 63.8228C206.174 61.9382 207.416 59.2397 207.416 55.6845C207.416 52.1722 206.431 49.4309 204.461 47.5034C203.39 46.4754 202.019 45.6616 200.348 44.9334C198.635 44.2481 196.323 43.6484 193.324 43.1772C190.326 42.7061 188.184 42.1921 186.899 41.5496C186.299 41.2926 185.914 40.9928 185.743 40.693C185.571 40.3931 185.486 39.9647 185.486 39.4079C185.486 38.8511 185.871 38.08 186.599 37.0949C188.269 37.6518 190.111 37.9516 192.081 37.9516C196.108 37.9516 199.406 36.7523 202.019 34.3107C203.175 33.1971 204.075 31.8693 204.718 30.3702C205.36 28.871 205.659 27.2004 205.659 25.3587C205.659 23.5168 205.232 21.7607 204.375 20.133C204.375 20.133 204.375 20.0902 204.332 20.0902H207.459V13.7937H192.467ZM187.284 48.4457L188.827 48.7027C193.153 49.3452 196.237 50.2018 197.992 51.3583C199.577 52.3435 200.348 53.6714 200.348 55.299C200.348 58.7256 197.907 60.3962 193.024 60.3962C190.154 60.3962 187.841 59.7965 186.042 58.64C185.229 58.126 184.586 57.4835 184.158 56.7553C183.686 56.0272 183.472 55.2133 183.472 54.2282C183.472 53.243 183.772 52.2151 184.372 51.1442C185.014 50.0306 186 49.1739 187.284 48.4457ZM196.622 30.0703C195.422 31.1411 194.009 31.6979 192.424 31.6979C190.283 31.6979 188.57 31.0983 187.242 29.8989C186.642 29.385 186.214 28.7424 185.871 28.0999C185.571 27.4147 185.4 26.7293 185.4 26.0011C185.4 25.273 185.528 24.5448 185.828 23.8167C186.77 21.3751 188.869 20.1758 192.167 20.1758C194.138 20.1758 195.723 20.6898 196.836 21.7178C197.95 22.7459 198.55 24.1165 198.55 25.787C198.506 27.4147 197.864 28.871 196.622 30.0703Z" fill="white"/>
</svg>
