<svg width="289" height="86" viewBox="0 0 289 86" fill="none" xmlns="http://www.w3.org/2000/svg">
<g clip-path="url(#clip0_2090_192)">
<path d="M163.899 17.1265C165.439 17.1265 166.929 16.529 168.022 15.4835C169.115 14.438 169.761 12.9444 169.811 11.4508C169.811 9.90747 169.165 8.41388 168.072 7.31858C166.979 6.22329 165.489 5.57606 163.948 5.57606C162.408 5.62585 160.968 6.22329 159.875 7.36837C158.782 8.46367 158.185 9.95726 158.235 11.4508C158.235 12.9444 158.831 14.3882 159.924 15.4835C160.968 16.4793 162.408 17.0767 163.899 17.1265ZM203.942 22.603H218.151V23.7481C217.356 23.8974 216.611 24.1463 215.915 24.5446C214.623 25.1421 212.04 28.0795 210.003 33.0083C206.625 41.5218 203.097 51.6284 199.371 63.1788L197.98 67.56C197.384 69.5514 196.837 70.8459 196.589 71.5927C196.341 72.3893 195.993 73.5841 195.397 75.0279C195.049 76.1232 194.602 77.2185 194.055 78.2143C193.36 79.5087 192.068 82.1474 191.025 82.944C189.385 84.338 186.951 85.8813 183.92 85.6324C178.008 85.6324 173.587 81.2512 173.537 76.0734C173.537 72.5386 175.773 70.1987 179.151 70.1987C181.585 70.1987 183.722 71.4931 183.722 74.2314C183.722 76.2228 181.734 78.264 181.734 79.3096C181.734 81.998 183.274 83.2427 186.305 83.2427C188.739 83.2427 190.727 81.6993 192.217 78.6125C194.204 75.0777 194.403 71.1944 192.714 66.863L180.244 34.004C177.362 26.4365 175.226 23.9472 172.543 23.6485V22.5034H192.217V23.6485C189.882 23.8974 188.69 25.2914 188.69 27.7807C188.69 29.5731 189.385 32.3611 190.677 35.8959L193.012 42.2686C195.695 49.1889 197.881 55.213 198.974 58.9968C201.508 51.1305 203.843 44.26 206.078 38.2359C207.718 33.7551 208.513 30.5688 208.513 28.6769C208.513 25.2914 206.674 23.7481 203.942 23.7481V22.603ZM67.1692 64.5728C64.6354 64.1247 62.4991 61.8844 62.4991 57.1547V0L48.1909 3.08675V4.28162C50.6253 4.03269 53.0597 6.1735 53.0597 10.7538V57.1547C53.0597 61.6354 50.6253 64.2243 48.1909 64.5728C47.9425 64.6226 47.7438 64.6226 47.4954 64.6724C46.2533 64.772 45.0113 64.523 43.8686 64.0252C41.9311 63.1788 40.3412 61.6852 38.9999 59.4946L32.3922 48.9897C31.0012 46.7493 28.9145 45.0566 26.4802 44.1107C24.0458 43.1647 21.363 43.0154 18.8292 43.7124L26.2814 35.4976C31.8954 29.2743 37.112 25.3412 42.0304 23.6983V22.5532H25.6356V23.6983C29.8585 25.3412 29.6101 28.9756 24.7413 34.6513L14.3082 46.7991V0L0 3.08675V4.28162C2.43439 4.28162 4.86877 6.67136 4.86877 10.9032V57.1049C4.86877 62.2329 2.48407 64.2243 0 64.5728V65.7179H18.9783V64.5728C15.8483 64.1247 14.3082 61.735 14.3082 57.1547V48.6412L18.3821 44.1604L28.219 60.2912C30.554 64.1745 32.74 65.7179 36.168 65.7179H69.1564V64.8217C69.2061 64.8217 68.2622 64.772 67.1692 64.5728ZM106.517 59.1461V39.829C106.318 27.2331 101.002 21.4579 88.8302 21.4579C84.9551 21.4081 81.1793 22.7025 78.0991 25.0923C74.8698 27.5318 73.3297 30.2701 73.3297 33.4564C73.3297 36.5431 75.0685 38.8831 77.9003 38.8831C80.9309 38.8831 83.1169 37.1406 83.1169 34.7508C83.1169 32.9585 81.9245 30.4194 81.9245 28.7267C81.9245 25.6399 84.2596 22.9515 88.3334 22.9515C93.55 22.9515 97.2761 26.8348 97.2761 35.4478V40.6256L92.9538 41.6711C90.7181 42.1192 88.7806 42.5673 87.3398 42.9656C85.8494 43.4136 83.9615 44.0111 81.7258 44.8574C77.2048 46.6 74.8201 48.2429 72.7335 51.3297C71.6902 52.8233 71.1934 54.6156 71.1934 56.4079C71.1934 63.5771 76.2112 66.863 83.2162 66.863C88.7806 66.863 94.643 63.9256 97.3257 58.3993C97.3754 60.1418 97.7729 61.8346 98.5678 63.4277C101.499 69.3523 111.237 65.8673 111.237 65.8673V64.7222C106.865 65.3694 106.517 60.341 106.517 59.1461ZM97.2761 53.1718C97.2761 56.0096 96.2328 58.3495 94.1461 59.9925C92.1589 61.6354 90.0723 62.4818 87.8863 62.4818C83.6634 62.4818 80.8812 59.7435 80.8812 54.6156C80.8812 52.2258 82.2226 49.9854 83.3156 48.691C84.2099 47.7948 85.2035 47.048 86.3462 46.5502C87.8366 45.7536 88.5322 45.3553 89.5755 44.9072L93.55 43.4634C95.5372 42.6668 96.7296 42.2686 97.2761 42.0196V53.1718ZM288.649 22.603H254.965V0H288.649L281.594 11.3015L288.649 22.603ZM220.138 60.1916C215.965 55.91 213.63 50.1348 213.729 44.1107C213.679 41.1733 214.226 38.2359 215.319 35.4976C216.412 32.7594 218.051 30.2701 220.138 28.1293C224.411 23.6485 229.577 21.4081 235.688 21.4081C241.65 21.4081 246.867 23.6485 251.139 28.1293C253.226 30.2203 254.915 32.7096 256.008 35.4478C257.151 38.1861 257.697 41.1235 257.647 44.1107C257.697 47.0978 257.151 50.0352 256.008 52.7735C254.865 55.5117 253.226 58.0508 251.139 60.1418C246.867 64.523 241.7 66.8132 235.688 66.8132C229.627 66.863 224.411 64.6226 220.138 60.1916ZM243.488 28.876C241.799 25.5404 239.514 23.5987 236.881 23.0511C231.515 21.9558 226.795 27.482 225.007 36.1946C224.262 40.1277 224.063 44.1107 224.46 48.0438C224.858 52.0267 225.951 55.8602 227.739 59.4448C229.478 62.7805 231.714 64.7222 234.347 65.2698C239.712 66.3651 244.581 60.6397 246.37 51.8275C247.86 44.4592 247.115 35.4976 243.488 28.876Z" fill="white"/>
<path d="M168.917 57.1547V22.603H138.413V23.6485C142.487 24.246 144.425 27.3327 142.586 32.2616C133.048 58.0508 133.644 56.9058 133.048 58.947C132.451 56.9556 131.06 52.0765 128.825 45.9528C126.589 39.8291 125.099 35.7964 124.502 33.9543C122.167 26.7851 122.962 24.1464 126.738 23.6983V22.5532H106.965V23.6983C109.896 24.2957 112.529 27.6812 114.665 33.7054L117.696 41.5716C121.025 50.0353 124.949 61.735 126.241 65.7179H132.799C134.935 59.5942 143.381 35.0994 144.524 32.6101C145.766 29.7722 147.157 27.6314 148.697 26.1378C149.442 25.3413 150.337 24.694 151.38 24.2957C152.374 23.8975 153.467 23.6485 154.56 23.6983C154.56 23.6983 159.329 23.6983 159.329 28.2786V57.2045C159.329 62.0338 156.994 64.2741 154.56 64.6226V65.7677H173.438V64.6226C171.004 64.2243 168.917 61.984 168.917 57.1547Z" fill="white"/>
</g>
<defs>
<clipPath id="clip0_2090_192">
<rect width="288.649" height="85.6324" fill="white"/>
</clipPath>
</defs>
</svg>
