<svg width="123" height="22" viewBox="0 0 123 22" fill="none" xmlns="http://www.w3.org/2000/svg">
<g clip-path="url(#clip0_1892_1193)">
<path d="M25.1557 12.0963L23.2525 16.35H6.20317C6.01972 16.35 5.8936 16.1551 5.97386 15.9946L13.2086 0.00012207H18.0356L12.6239 12.0963H25.1557Z" fill="#FBFAEE"/>
<path d="M22.8975 17.1411L20.9943 21.3948H3.94499C3.32585 21.3948 2.91309 20.7642 3.15386 20.2024L3.99085 18.2304C4.18576 17.7603 3.8418 17.2443 3.33731 17.2443H0.860752C0.241612 17.2443 -0.171148 16.6137 0.0696289 16.0404L6.96043 0.00012207H11.9021L4.93102 16.1436C4.72464 16.6137 5.06861 17.1411 5.58456 17.1411H22.8975Z" fill="#FBFAEE"/>
</g>
<path d="M43.7037 15.6549V17.6975H35.1493V4.1772H37.5667V15.6549H43.7037ZM49.5878 17.6975H47.1799V12.3662L42.4389 4.1772H45.0904L48.3698 10.0613H48.426L51.696 4.1772H54.3288L49.5878 12.3662V17.6975ZM62.3211 17.6975H59.5477L54.8442 4.1772H57.5051L60.9344 15.1021H60.9906L64.4199 4.1772H67.0246L62.3211 17.6975ZM77.2187 15.6549V17.6975H68.4675V4.1772H77.2187V6.21977H70.8849V9.87391H76.8721V11.7947H70.8849V15.6549H77.2187ZM85.1454 17.9224C84.1772 17.9224 83.3058 17.7631 82.5313 17.4445C81.763 17.126 81.104 16.6637 80.5543 16.0578C80.0046 15.4519 79.583 14.718 79.2894 13.856C79.0021 12.994 78.8584 12.0195 78.8584 10.9327C78.8584 9.85829 79.0052 8.8901 79.2988 8.0281C79.5924 7.1661 80.014 6.43215 80.5637 5.82625C81.1134 5.22035 81.7724 4.75812 82.5407 4.43955C83.3152 4.11474 84.1835 3.95233 85.1454 3.95233C85.9324 3.95233 86.6633 4.06789 87.3379 4.29901C88.0125 4.53013 88.609 4.86118 89.1275 5.29218C89.6459 5.72319 90.0644 6.23851 90.383 6.83817C90.7016 7.43157 90.8983 8.09057 90.9733 8.81515H88.5934C88.4872 8.25297 88.2717 7.76263 87.9469 7.34412C87.6283 6.91937 87.2254 6.59143 86.7382 6.36032C86.2573 6.12295 85.7263 6.00427 85.1454 6.00427C84.3708 6.00427 83.6962 6.20728 83.1216 6.6133C82.5532 7.01306 82.1128 7.58149 81.8005 8.31856C81.4881 9.05563 81.332 9.927 81.332 10.9327C81.332 11.9446 81.4881 12.8191 81.8005 13.5562C82.1128 14.2932 82.5532 14.8648 83.1216 15.2708C83.6962 15.6706 84.374 15.8704 85.1548 15.8704C86.048 15.8704 86.7976 15.6424 87.4035 15.1865C88.0156 14.7242 88.4154 14.0871 88.6028 13.2751H90.9733C90.8296 14.237 90.4986 15.0678 89.9801 15.7674C89.4679 16.4607 88.7995 16.9948 87.975 17.3696C87.1567 17.7381 86.2135 17.9224 85.1454 17.9224ZM98.7688 3.95233C99.7495 3.95233 100.633 4.11474 101.42 4.43955C102.214 4.75812 102.888 5.22347 103.444 5.83562C104.006 6.44152 104.434 7.17547 104.728 8.03747C105.028 8.89947 105.178 9.86766 105.178 10.942C105.178 12.0164 105.028 12.9846 104.728 13.8466C104.434 14.7024 104.006 15.4363 103.444 16.0485C102.888 16.6544 102.214 17.1197 101.42 17.4445C100.633 17.7631 99.7495 17.9224 98.7688 17.9224C97.7818 17.9224 96.8917 17.7631 96.0984 17.4445C95.3114 17.1197 94.6368 16.6544 94.0746 16.0485C93.5187 15.4363 93.0908 14.7024 92.791 13.8466C92.4974 12.9846 92.3506 12.0164 92.3506 10.942C92.3506 9.86766 92.4974 8.89947 92.791 8.03747C93.0908 7.17547 93.5187 6.44152 94.0746 5.83562C94.6368 5.22347 95.3114 4.75812 96.0984 4.43955C96.8917 4.11474 97.7818 3.95233 98.7688 3.95233ZM98.7688 6.01364C97.963 6.01364 97.2634 6.21665 96.67 6.62267C96.0828 7.02243 95.6268 7.59086 95.302 8.32793C94.9835 9.065 94.8242 9.93637 94.8242 10.942C94.8242 11.9477 94.9835 12.8191 95.302 13.5562C95.6268 14.287 96.0828 14.8554 96.67 15.2614C97.2634 15.6612 97.963 15.8611 98.7688 15.8611C99.5746 15.8611 100.271 15.6612 100.858 15.2614C101.452 14.8554 101.908 14.287 102.226 13.5562C102.551 12.8191 102.713 11.9477 102.713 10.942C102.713 9.93637 102.551 9.065 102.226 8.32793C101.908 7.59086 101.452 7.02243 100.858 6.62267C100.271 6.21665 99.5746 6.01364 98.7688 6.01364ZM121.059 17.6975H118.885V8.10306H118.82L114.913 17.6975H113.264L109.356 8.10306H109.291V17.6975H107.108V4.1772H109.909L114.051 14.4931H114.126L118.267 4.1772H121.059V17.6975Z" fill="#FBFAEE"/>
<defs>
<clipPath id="clip0_1892_1193">
<rect width="25.1554" height="21.3947" fill="white"/>
</clipPath>
</defs>
</svg>
