<svg width="289" height="83" viewBox="0 0 289 83" fill="none" xmlns="http://www.w3.org/2000/svg">
<g clip-path="url(#clip0_2090_177)">
<path d="M99.8601 46.0132C97.4024 44.6503 96.1089 43.547 96.1089 41.9895C96.1089 39.9776 97.8551 38.7445 100.636 38.7445C103.87 38.7445 106.716 40.1074 106.716 40.1074L108.979 33.1632C108.979 33.1632 106.91 31.5408 100.766 31.5408C92.2283 31.5408 86.2781 36.4731 86.2781 43.3523C86.2781 47.2463 89.0592 50.2316 92.7457 52.3733C95.7208 54.0606 96.7557 55.2937 96.7557 57.046C96.7557 58.9281 95.2681 60.4207 92.487 60.4207C88.3478 60.4207 84.4672 58.2791 84.4672 58.2791L82.0742 65.2232C82.0742 65.2232 85.6961 67.6245 91.7109 67.6245C100.507 67.6245 106.78 63.2763 106.78 55.4884C106.91 51.2051 103.676 48.2198 99.8601 46.0132Z" fill="white"/>
<path d="M134.916 31.4111C130.583 31.4111 127.22 33.4878 124.568 36.603L124.438 36.5381L128.19 16.8088H118.359L108.852 66.9756H118.618L121.851 49.8423C123.145 43.3524 126.443 39.3936 129.548 39.3936C131.747 39.3936 132.588 40.8863 132.588 43.0279C132.588 44.3908 132.458 46.0133 132.135 47.3762L128.448 67.0405H138.214L142.03 46.7921C142.483 44.6504 142.742 42.1194 142.742 40.3671C142.871 34.7209 140.025 31.4111 134.916 31.4111Z" fill="white"/>
<path d="M164.987 31.411C153.216 31.411 145.391 42.0544 145.391 53.9309C145.391 61.524 150.047 67.6894 158.843 67.6894C170.42 67.6894 178.181 57.3056 178.181 45.1695C178.246 38.0956 174.171 31.411 164.987 31.411ZM160.201 60.0963C156.838 60.0963 155.48 57.2407 155.48 53.6713C155.48 48.0251 158.39 38.8744 163.694 38.8744C167.186 38.8744 168.286 41.8597 168.286 44.7802C168.286 50.8806 165.375 60.0963 160.201 60.0963Z" fill="white"/>
<path d="M203.276 31.411C196.679 31.411 192.928 37.2519 192.928 37.2519H192.798L193.38 31.9951H184.714C184.261 35.5645 183.485 40.9511 182.709 45.0398L175.918 80.8639H185.684L188.4 66.3265H188.594C188.594 66.3265 190.599 67.6245 194.351 67.6245C205.863 67.6245 213.365 55.8129 213.365 43.8716C213.365 37.3168 210.455 31.411 203.276 31.411ZM193.963 60.291C191.44 60.291 189.953 58.8632 189.953 58.8632L191.57 49.7125C192.734 43.612 195.903 39.5234 199.266 39.5234C202.241 39.5234 203.147 42.314 203.147 44.91C203.147 51.2051 199.395 60.291 193.963 60.291Z" fill="white"/>
<path d="M227.338 17.328C224.233 17.328 221.711 19.7942 221.711 23.0391C221.711 25.9595 223.522 27.9714 226.303 27.9714H226.432C229.472 27.9714 232.124 25.8946 232.188 22.2603C232.253 19.3399 230.313 17.328 227.338 17.328Z" fill="white"/>
<path d="M213.625 66.9756H223.456L230.117 32.1898H220.222L213.625 66.9756Z" fill="white"/>
<path d="M254.954 32.1249H248.163L248.487 30.5024C249.069 27.1277 251.009 24.1423 254.308 24.1423C256.054 24.1423 257.412 24.6615 257.412 24.6615L259.352 17.0035C259.352 17.0035 257.671 16.1598 254.049 16.1598C250.556 16.1598 247.129 17.1333 244.477 19.4047C241.114 22.2603 239.561 26.3489 238.785 30.5024L238.527 32.1249H233.999L232.576 39.5233H237.104L231.93 66.9755H241.696L246.87 39.5233H253.596L254.954 32.1249Z" fill="white"/>
<path d="M278.495 32.1898C278.495 32.1898 272.35 47.6357 269.634 56.0726H269.505C269.311 53.3468 267.112 32.1898 267.112 32.1898H256.828L262.714 64.12C262.843 64.8339 262.778 65.2882 262.52 65.7425C261.355 67.949 259.48 70.0907 257.216 71.6483C255.405 73.0111 253.336 73.8548 251.719 74.4389L254.435 82.746C256.44 82.2917 260.515 80.6692 264.007 77.4243C268.47 73.2058 272.609 66.7809 276.813 57.9546L288.778 32.1898H278.495Z" fill="white"/>
<path d="M48.3789 9.60505C48.3789 9.60505 47.4734 9.86464 45.9859 10.3189C45.7272 9.47525 45.3391 8.50177 44.8217 7.46339C43.1401 4.21845 40.6178 2.46618 37.6427 2.46618C37.4486 2.46618 37.2546 2.46618 36.9959 2.53108C36.9312 2.40128 36.8019 2.33639 36.7372 2.20659C35.4437 0.778815 33.7621 0.129828 31.7572 0.194726C27.8766 0.324524 23.996 3.11517 20.8916 8.11238C18.6926 11.6169 17.0111 16.03 16.5583 19.4697C12.0957 20.8325 8.99124 21.806 8.92656 21.8709C6.6629 22.5848 6.59823 22.6497 6.33952 24.7914C6.1455 26.4138 0.195312 72.1026 0.195312 72.1026L49.0903 80.6043V9.54015C48.7022 9.54015 48.5082 9.60505 48.3789 9.60505ZM37.0606 13.1096C34.4735 13.8884 31.6278 14.7969 28.8467 15.6406C29.6229 12.5904 31.1751 9.54015 32.986 7.52829C33.6974 6.8144 34.6676 5.97072 35.7671 5.45153C36.8666 7.78788 37.1253 10.9679 37.0606 13.1096ZM31.7572 2.85558C32.6626 2.85558 33.4387 3.05027 34.0855 3.43966C33.0507 3.95886 32.0159 4.80254 31.0457 5.77602C28.588 8.43687 26.7124 12.5904 25.9363 16.5492C23.608 17.2631 21.2797 17.977 19.1454 18.626C20.5682 12.3957 25.807 2.98537 31.7572 2.85558ZM24.2548 38.5499C24.5135 42.7034 35.4437 43.612 36.0904 53.4117C36.5432 61.1347 32.0159 66.3915 25.4836 66.7809C17.5931 67.3001 13.2598 62.6273 13.2598 62.6273L14.9414 55.4885C14.9414 55.4885 19.2747 58.7983 22.7672 58.5387C25.0309 58.4089 25.8717 56.5269 25.807 55.2289C25.4836 49.7774 16.5583 50.1019 15.9762 41.1458C15.4588 33.6176 20.3742 26.0244 31.2398 25.3105C35.4437 25.051 37.578 26.0893 37.578 26.0893L35.1203 35.4348C35.1203 35.4348 32.3392 34.1368 29.0408 34.3964C24.2548 34.7209 24.1901 37.7711 24.2548 38.5499ZM39.6476 12.3308C39.6476 10.3838 39.3889 7.59319 38.4835 5.25683C41.4585 5.84092 42.8814 9.15076 43.5282 11.1626C42.364 11.4871 41.0705 11.8765 39.6476 12.3308Z" fill="white"/>
<path d="M50.5781 80.4745L70.8864 75.4124C70.8864 75.4124 62.1551 16.1599 62.0904 15.7705C62.0258 15.3811 61.7024 15.1215 61.379 15.1215C61.0556 15.1215 55.3641 14.9917 55.3641 14.9917C55.3641 14.9917 51.8716 11.6169 50.5781 10.319V80.4745Z" fill="white"/>
</g>
<defs>
<clipPath id="clip0_2090_177">
<rect width="288.649" height="82.7459" fill="white"/>
</clipPath>
</defs>
</svg>
