<svg width="289" height="73" viewBox="0 0 289 73" fill="none" xmlns="http://www.w3.org/2000/svg">
<g clip-path="url(#clip0_2090_198)">
<path d="M92.5625 57.1929L96.1605 48.9158C100.049 51.7898 105.214 53.2843 110.32 53.2843C114.092 53.2843 116.472 51.8473 116.472 49.663C116.414 43.5701 93.8972 48.341 93.7231 33.0512C93.6651 25.2913 100.629 19.3134 110.494 19.3134C116.356 19.3134 122.217 20.7504 126.395 24.0268L123.029 32.4764C119.199 30.0622 114.441 28.3378 109.914 28.3378C106.838 28.3378 104.807 29.7748 104.807 31.6142C104.865 37.5921 127.556 34.3158 127.788 48.9158C127.788 56.848 120.998 62.4236 111.249 62.4236C104.111 62.4236 97.5533 60.7567 92.5625 57.1929ZM230.621 45.9268C228.822 49.0307 225.456 51.1575 221.568 51.1575C215.823 51.1575 211.18 46.5591 211.18 40.8685C211.18 35.178 215.823 30.5795 221.568 30.5795C225.456 30.5795 228.822 32.7063 230.621 35.8102L240.544 30.3496C236.83 23.7969 229.692 19.3134 221.568 19.3134C209.555 19.3134 199.806 28.9701 199.806 40.8685C199.806 52.7669 209.555 62.4236 221.568 62.4236C229.75 62.4236 236.83 57.9976 240.544 51.3874L230.621 45.9268ZM132.779 1.43701H145.198V61.6189H132.779V1.43701ZM245.419 1.43701V61.6189H257.838V43.5701L272.578 61.6189H288.479L269.735 40.1787L287.086 20.1756H271.882L257.838 36.7874V1.43701H245.419ZM182.106 46.0417C180.307 48.9732 176.593 51.1575 172.415 51.1575C166.67 51.1575 162.027 46.5591 162.027 40.8685C162.027 35.178 166.67 30.5795 172.415 30.5795C176.593 30.5795 180.307 32.8787 182.106 35.8677V46.0417ZM182.106 20.1756V25.0614C180.075 21.6701 175.026 19.3134 169.745 19.3134C158.835 19.3134 150.246 28.8551 150.246 40.811C150.246 52.7669 158.835 62.4236 169.745 62.4236C175.026 62.4236 180.075 60.0669 182.106 56.6756V61.5614H194.525V20.1756H182.106Z" fill="white"/>
<path d="M15.7853 45.9842C15.7853 50.1803 12.3614 53.5716 8.12508 53.5716C3.88874 53.5716 0.464844 50.1803 0.464844 45.9842C0.464844 41.7882 3.88874 38.3969 8.12508 38.3969H15.7853V45.9842ZM19.6154 45.9842C19.6154 41.7882 23.0393 38.3969 27.2757 38.3969C31.512 38.3969 34.9359 41.7882 34.9359 45.9842V64.9528C34.9359 69.1488 31.512 72.5402 27.2757 72.5402C23.0393 72.5402 19.6154 69.1488 19.6154 64.9528V45.9842Z" fill="white"/>
<path d="M27.2751 15.5197C23.0388 15.5197 19.6149 12.1283 19.6149 7.93225C19.6149 3.73619 23.0388 0.344849 27.2751 0.344849C31.5115 0.344849 34.9354 3.73619 34.9354 7.93225V15.5197H27.2751ZM27.2751 19.3708C31.5115 19.3708 34.9354 22.7622 34.9354 26.9582C34.9354 31.1543 31.5115 34.5456 27.2751 34.5456H8.06649C3.83015 34.5456 0.40625 31.1543 0.40625 26.9582C0.40625 22.7622 3.83015 19.3708 8.06649 19.3708H27.2751Z" fill="white"/>
<path d="M57.9748 26.9582C57.9748 22.7622 61.3987 19.3708 65.6351 19.3708C69.8714 19.3708 73.2953 22.7622 73.2953 26.9582C73.2953 31.1543 69.8714 34.5456 65.6351 34.5456H57.9748V26.9582ZM54.1447 26.9582C54.1447 31.1543 50.7208 34.5456 46.4845 34.5456C42.2481 34.5456 38.8242 31.1543 38.8242 26.9582V7.93225C38.8242 3.73619 42.2481 0.344849 46.4845 0.344849C50.7208 0.344849 54.1447 3.73619 54.1447 7.93225V26.9582Z" fill="white"/>
<path d="M46.4845 57.3654C50.7208 57.3654 54.1447 60.7567 54.1447 64.9528C54.1447 69.1488 50.7208 72.5402 46.4845 72.5402C42.2481 72.5402 38.8242 69.1488 38.8242 64.9528V57.3654H46.4845ZM46.4845 53.5716C42.2481 53.5716 38.8242 50.1803 38.8242 45.9842C38.8242 41.7882 42.2481 38.3969 46.4845 38.3969H65.6931C69.9294 38.3969 73.3533 41.7882 73.3533 45.9842C73.3533 50.1803 69.9294 53.5716 65.6931 53.5716H46.4845Z" fill="white"/>
</g>
<defs>
<clipPath id="clip0_2090_198">
<rect width="289" height="73" fill="white"/>
</clipPath>
</defs>
</svg>
